<?xml version="1.0" standalone="no"?>
<!DOCTYPE svg PUBLIC "-//W3C//DTD SVG 20010904//EN"
 "http://www.w3.org/TR/2001/REC-SVG-20010904/DTD/svg10.dtd">
<svg version="1.0" xmlns="http://www.w3.org/2000/svg"
 width="534.000000pt" height="534.000000pt" viewBox="0 0 534.000000 534.000000"
 preserveAspectRatio="xMidYMid meet">
<metadata>
Created by potrace 1.14, written by Peter Selinger 2001-2017
</metadata>
<g transform="translate(0.000000,534.000000) scale(0.100000,-0.100000)"
fill="#000000" stroke="none">
<path d="M2377 5323 l-29 -5 7 -66 c3 -37 8 -74 10 -82 4 -16 9 -53 20 -140 4
-30 8 -67 11 -81 2 -15 6 -47 9 -70 3 -24 8 -57 10 -74 2 -16 6 -52 10 -80 3
-27 8 -61 10 -75 3 -14 7 -47 11 -75 3 -27 8 -52 10 -54 2 -2 24 0 49 3 l46 7
-5 52 c-3 29 -10 86 -16 127 -5 41 -13 93 -15 115 -6 44 -23 171 -30 223 -7
49 -17 124 -20 147 -1 11 -5 46 -10 78 -8 62 -6 61 -78 50z"/>
<path d="M2807 5299 c-49 -38 -23 -119 37 -119 58 0 90 71 50 110 -31 30 -58
32 -87 9z"/>
<path d="M2789 5078 c-4 -61 -8 -144 -14 -330 l-7 -218 28 -1 c16 0 37 -2 46
-4 10 -2 20 0 22 4 4 6 9 95 22 424 l5 137 -51 0 c-33 0 -50 -4 -51 -12z"/>
<path d="M3224 4980 c-75 -38 -110 -147 -69 -217 24 -41 69 -67 168 -97 90
-28 117 -49 117 -94 0 -32 -43 -72 -77 -72 -15 0 -82 16 -148 35 -66 19 -125
35 -132 35 -11 0 -37 -69 -29 -77 1 -2 36 -13 77 -24 41 -12 103 -30 138 -41
35 -11 81 -20 101 -20 81 -1 153 60 168 143 19 101 -24 153 -168 198 -104 34
-130 52 -130 94 0 55 46 74 127 52 164 -46 198 -54 205 -47 4 4 9 23 10 42 l3
34 -130 38 c-152 43 -176 45 -231 18z"/>
<path d="M1820 4934 c-108 -28 -196 -114 -218 -210 -39 -174 101 -376 261
-377 132 -1 228 70 257 188 l7 30 12 -27 c6 -16 15 -39 21 -53 l9 -24 46 16
c25 10 45 21 45 26 0 4 -28 75 -61 158 -42 102 -73 162 -99 192 -71 80 -171
109 -280 81z m111 -88 c108 -19 182 -192 129 -301 -43 -88 -155 -128 -240 -85
-148 76 -165 304 -28 368 70 32 64 32 139 18z"/>
<path d="M3823 4603 c-55 -82 -106 -166 -113 -187 -7 -23 -10 -63 -7 -97 19
-207 303 -318 441 -172 15 17 70 93 122 169 l94 139 -33 27 c-17 15 -38 27
-45 25 -6 -1 -56 -67 -110 -147 -62 -90 -110 -152 -130 -163 -101 -59 -228 6
-240 123 -5 57 3 74 113 235 44 66 84 125 88 131 5 9 -60 64 -77 64 -2 0 -49
-66 -103 -147z"/>
<path d="M1182 4599 c-36 -35 -37 -33 28 -100 178 -184 201 -214 205 -268 9
-116 -109 -207 -215 -165 -21 9 -84 65 -162 147 l-127 132 -36 -36 -37 -36 83
-88 c158 -166 181 -187 227 -207 66 -30 133 -26 207 12 137 71 195 223 132
347 -20 39 -251 293 -266 293 -4 0 -22 -14 -39 -31z"/>
<path d="M4509 4131 c-42 -23 -349 -271 -349 -282 0 -11 50 -69 60 -69 3 0 46
33 95 73 270 218 267 217 338 136 l44 -52 31 23 c18 13 32 27 32 31 0 16 -96
122 -124 136 -43 22 -90 24 -127 4z"/>
<path d="M480 3970 c-111 -40 -202 -137 -248 -262 -31 -84 -26 -211 13 -291
98 -204 364 -294 558 -189 44 24 107 80 140 125 12 18 16 17 82 -13 39 -17 82
-37 97 -45 19 -9 28 -10 31 -1 3 6 12 28 21 49 l17 38 -96 44 c-86 40 -96 47
-90 66 13 39 14 143 3 189 -29 119 -107 211 -227 269 -65 30 -86 35 -160 38
-66 2 -99 -2 -141 -17z m218 -101 c97 -32 174 -105 207 -198 42 -120 -10 -266
-120 -336 -107 -69 -223 -64 -343 13 -123 80 -167 228 -107 360 67 146 212
210 363 161z"/>
<path d="M2233 3922 c-28 -4 -72 -48 -89 -89 -26 -61 -19 -82 49 -147 129
-126 228 -204 437 -343 165 -109 168 -111 154 -92 -6 8 -38 51 -72 96 -34 45
-127 180 -206 300 -79 120 -155 228 -167 239 -28 25 -75 41 -106 36z"/>
<path d="M2755 3732 c-54 -12 -96 -71 -89 -126 7 -49 78 -183 144 -271 64 -86
197 -235 210 -235 4 0 -6 39 -22 88 -35 107 -82 293 -98 387 -18 111 -36 137
-110 157 -8 2 -24 2 -35 0z"/>
<path d="M1789 3710 c-40 -11 -75 -38 -89 -68 -30 -61 -36 -131 -16 -170 36
-70 335 -235 631 -347 83 -32 155 -60 162 -64 6 -3 -32 -6 -85 -5 -215 2 -387
-62 -515 -191 -97 -98 -148 -245 -118 -338 9 -27 23 -41 55 -56 55 -27 155
-38 196 -21 26 11 30 18 30 50 0 124 114 231 272 256 146 22 247 -4 329 -85
97 -97 156 -279 130 -397 -33 -144 -226 -240 -416 -205 -131 25 -247 106 -281
199 -10 26 -22 53 -28 61 -31 41 -166 57 -224 27 -64 -33 -71 -79 -31 -199 60
-179 210 -302 473 -388 91 -30 190 -57 235 -66 13 -2 73 -17 133 -33 174 -48
242 -85 345 -190 55 -56 65 -62 101 -62 22 0 56 9 75 19 19 10 143 123 276
252 253 247 269 267 258 340 -3 20 -27 74 -54 121 -27 47 -80 153 -118 235
-220 474 -312 567 -875 880 -58 32 -253 145 -435 251 -181 106 -343 194 -360
197 -16 2 -42 1 -56 -3z"/>
<path d="M4653 3681 c-49 -17 -114 -58 -141 -91 -48 -56 -68 -167 -47 -250 16
-58 76 -200 85 -200 20 0 70 23 70 33 0 6 -17 50 -37 97 -51 120 -49 193 10
258 11 12 26 22 32 22 6 0 28 -42 50 -92 21 -51 56 -130 77 -176 21 -46 38
-87 38 -93 0 -15 39 -10 82 12 62 31 123 100 139 156 36 126 -32 271 -150 320
-54 23 -147 25 -208 4z m209 -109 c68 -42 93 -149 49 -211 -12 -16 -35 -40
-51 -51 l-29 -21 -14 28 c-17 33 -117 262 -117 268 0 7 35 12 80 11 28 -1 60
-11 82 -24z"/>
<path d="M385 2853 c-97 -26 -182 -101 -215 -190 -41 -109 -15 -243 62 -322
109 -111 270 -127 399 -39 50 34 100 102 119 161 43 138 -36 311 -167 368 -48
20 -160 33 -198 22z"/>
<path d="M4807 2842 c-40 -13 -74 -35 -124 -79 -12 -11 -35 -44 -50 -74 -24
-47 -28 -65 -28 -139 0 -95 17 -139 81 -210 110 -122 319 -125 437 -6 45 44
67 85 82 151 55 231 -170 433 -398 357z"/>
<path d="M709 1996 c-117 -33 -219 -117 -272 -226 -28 -56 -32 -75 -32 -145 0
-44 3 -94 7 -111 l7 -32 -94 -43 c-52 -23 -95 -46 -95 -51 0 -21 42 -89 53
-85 7 3 49 22 95 43 l84 38 40 -47 c152 -178 415 -189 589 -25 132 125 160
307 74 479 -86 168 -278 255 -456 205z m233 -118 c101 -43 171 -154 171 -274
1 -120 -65 -219 -182 -272 -205 -94 -431 47 -431 269 0 211 242 363 442 277z"/>
<path d="M4607 1945 c-81 -28 -136 -90 -163 -183 -39 -134 29 -263 171 -328
115 -53 230 -30 316 63 35 38 129 212 129 239 0 11 -56 37 -71 32 -6 -2 -24
-35 -41 -73 -59 -135 -114 -185 -202 -185 -26 0 -46 5 -46 11 0 5 36 93 80
193 44 101 80 186 80 189 0 2 -22 14 -49 26 -60 26 -154 33 -204 16z m136 -95
c4 0 7 -5 7 -12 0 -21 -122 -288 -132 -288 -21 0 -76 68 -88 107 -22 73 5 141
74 185 24 15 42 18 81 14 28 -3 53 -6 58 -6z"/>
<path d="M4266 1394 c-39 -51 -50 -74 -53 -112 -6 -65 14 -93 139 -193 56 -46
105 -86 108 -89 3 -3 34 -28 68 -55 l64 -49 29 34 c16 19 29 38 29 42 0 4 -72
65 -159 135 -88 70 -164 139 -170 152 -15 31 -6 56 37 110 l36 44 -30 23 c-16
13 -33 24 -39 24 -5 0 -32 -30 -59 -66z"/>
<path d="M1198 1212 c-7 -11 -60 -69 -118 -131 -128 -136 -144 -164 -145 -251
0 -53 6 -75 30 -118 54 -98 141 -155 240 -156 94 -1 134 25 277 176 68 71 124
133 126 137 1 4 -14 22 -33 41 l-36 35 -65 -70 c-143 -152 -186 -194 -221
-210 -71 -34 -165 3 -203 81 -39 80 -22 130 82 240 82 87 112 119 147 157 l23
26 -33 30 c-39 36 -53 38 -71 13z"/>
<path d="M4003 1084 l-43 -25 105 -157 c71 -107 106 -168 108 -192 11 -95 -70
-180 -171 -180 -73 0 -95 24 -296 325 -13 19 -14 19 -55 -8 -22 -15 -41 -30
-41 -32 0 -6 62 -98 152 -227 87 -123 131 -153 228 -153 184 1 323 170 274
334 -11 38 -200 338 -214 340 -3 1 -24 -11 -47 -25z"/>
<path d="M2486 813 c-2 -10 -8 -47 -11 -83 -3 -36 -8 -72 -10 -80 -2 -8 -7
-40 -10 -70 -3 -30 -8 -66 -10 -80 -2 -14 -6 -45 -10 -70 -3 -25 -10 -79 -16
-120 -16 -117 -17 -131 -25 -195 -3 -33 -8 -68 -10 -77 -2 -14 4 -18 24 -19
15 0 37 -2 49 -5 27 -5 28 -1 48 156 9 69 18 136 20 150 2 14 7 49 10 79 4 30
8 61 10 70 1 9 6 45 10 81 4 36 9 74 11 85 2 11 6 40 9 64 2 24 7 61 10 82 5
36 4 39 -17 40 -13 0 -35 3 -50 5 -19 3 -28 0 -32 -13z"/>
<path d="M2792 803 c-52 -10 -61 -97 -13 -122 74 -40 140 56 75 108 -15 12
-29 20 -33 20 -3 -1 -16 -4 -29 -6z"/>
<path d="M1849 749 c-150 -23 -256 -162 -252 -329 1 -70 23 -121 72 -170 80
-80 190 -102 283 -55 l49 25 -7 -23 c-3 -12 -13 -34 -20 -48 -13 -26 -12 -27
34 -47 26 -12 50 -18 53 -14 3 4 32 72 64 152 68 168 78 235 50 321 -19 58
-78 124 -136 153 -54 27 -139 43 -190 35z m129 -106 c55 -26 80 -51 98 -100
41 -106 -39 -270 -141 -289 -61 -11 -71 -11 -112 3 -92 32 -141 131 -114 233
35 134 160 205 269 153z"/>
<path d="M3277 680 c-131 -39 -165 -58 -193 -112 -19 -37 -18 -106 4 -147 40
-80 115 -97 253 -58 74 21 90 23 116 12 33 -14 43 -32 43 -74 0 -45 -35 -67
-175 -106 -71 -21 -133 -40 -137 -44 -4 -4 -3 -23 3 -44 12 -43 -4 -44 183 10
66 19 132 41 147 48 75 39 103 149 60 234 -39 75 -108 96 -222 66 -129 -35
-140 -35 -166 -9 -12 13 -23 34 -23 47 0 47 29 65 155 98 66 18 124 36 128 39
5 4 5 24 2 44 -9 45 -12 45 -178 -4z"/>
<path d="M2775 373 c4 -115 9 -233 10 -263 2 -30 3 -65 4 -77 1 -21 6 -23 52
-23 l51 0 -7 192 c-7 179 -12 318 -14 361 -1 14 -10 17 -52 17 l-51 0 7 -207z"/>
</g>
</svg>
